<?xml version="1.0" ?><svg style="enable-background:new 0 0 48 48;" version="1.1" viewBox="0 0 48 48" xml:space="preserve" xmlns="http://www.w3.org/2000/svg" xmlns:xlink="http://www.w3.org/1999/xlink"><g id="Icons"><g><path d="M20.73595,28.34853l-0.1087,1.2723l-4.9039,1.3142c-2.6586,0.7126-4.7549,2.4179-5.6568,4.6018    l-1.3148,3.1834c0,0,14.6149,5.5265,30.4965,0.0254l-1.3147-3.1834c-0.902-2.1839-2.9983-3.8892-5.6569-4.6017l-4.9039-1.3143    l-0.0989-1.2321" style="fill:#1D97FF;"/><path d="M20.63385,29.45323c-0.0395,0.01-0.079,0.01-0.1184,0.01c-0.158,0-0.306-0.0299-0.4639-0.0799    c-0.4147-0.1596-0.7502-0.5287-0.8094-1.0075c-0.0987-0.0499-0.2073-0.0997-0.306-0.1496    c-0.1778,0.0997-0.3653,0.1597-0.5528,0.1597c-0.2566,0-0.5133-0.0799-0.7206-0.2196c-0.3751-0.2493-0.612-0.6883-0.5626-1.1672    c-0.0888-0.0697-0.1678-0.1395-0.2467-0.2194c-0.1086,0.0399-0.2073,0.0598-0.316,0.0598c-0.3553,0-0.6909-0.1595-0.9277-0.4189    c-0.3061-0.3292-0.4344-0.8081-0.2765-1.2669c-0.0592-0.0898-0.1283-0.1696-0.1875-0.2594c-0.0198,0-0.0395,0.02-0.0592,0.02    c-0.4639,0-0.8588-0.2794-1.076-0.6585c-0.1579-0.2792-0.2171-0.6084-0.148-0.9077c0.0197-0.1196,0.079-0.2593,0.1678-0.399    c-0.0395-0.0998-0.0888-0.1995-0.1283-0.2993c-0.4738-0.0897-0.8193-0.4489-0.9476-0.8778    c-0.1283-0.429-0.0198-0.9078,0.3257-1.237c-0.0296-0.1197-0.0395-0.2395-0.0592-0.3591    c-0.2073-0.0898-0.3948-0.2096-0.5231-0.4091c-0.2468-0.389-0.2764-0.9177-0.0691-1.3366    c0.0987-0.2096,0.2763-0.3493,0.4737-0.4689c0-0.1198,0.0099-0.2295,0.0099-0.3492c-0.3849-0.2893-0.5429-0.7582-0.4639-1.207    c0.079-0.439,0.3849-0.838,0.8489-0.9777c0.0296-0.1097,0.0592-0.2094,0.0888-0.3092c-0.306-0.3791-0.3554-0.8779-0.1776-1.2968    c0.1875-0.419,0.5724-0.7283,1.066-0.7582c0.0494-0.0997,0.1086-0.1796,0.1579-0.2693c-0.2271-0.4489-0.148-0.9477,0.1185-1.3168    c0.2665-0.3691,0.7303-0.5786,1.2141-0.4888c0.0691-0.0798,0.1381-0.1597,0.2072-0.2294    c-0.1184-0.4789,0.0691-0.9577,0.4147-1.247c0.2467-0.2095,0.5625-0.3092,0.8586-0.3092c0.1284,0,0.2765,0.0299,0.4344,0.0997    c0.079-0.0499,0.1678-0.0997,0.2468-0.1497c0-0.2394,0.0493-0.4688,0.1875-0.6683c0.2467-0.3891,0.7206-0.6285,1.1746-0.5986    c0.2467,0.01,0.464,0.0998,0.6416,0.2495c0.0987-0.04,0.1974-0.0699,0.2961-0.1098c0.0494-0.2194,0.1382-0.439,0.306-0.5986    c0.3357-0.3292,0.8489-0.4488,1.2833-0.3091c0.2369,0.0698,0.4046,0.2194,0.5527,0.399c0.1086-0.01,0.2073-0.0399,0.3158-0.0499    c0.4344-0.8679,1.7867-0.8679,2.2209,0c0.1086,0.01,0.2074,0.0399,0.316,0.0499c0.148-0.1796,0.3257-0.3292,0.5527-0.399    c0.4442-0.1397,0.9476-0.01,1.2832,0.3091c0.1677,0.1596,0.2567,0.3792,0.306,0.5986c0.1086,0.0399,0.2073,0.0798,0.306,0.1098    c0.3849-0.2993,0.8884-0.3192,1.3029-0.1098c0.2862,0.1497,0.5035,0.389,0.6219,0.6784c0.0395,0.1096,0.0691,0.2693,0.0592,0.4388    c0.0889,0.06,0.1777,0.1098,0.2566,0.1597c0.158-0.0698,0.3159-0.0997,0.4343-0.0997c0.2962-0.02,0.612,0.0997,0.8588,0.3092    c0.3454,0.2893,0.5331,0.7681,0.4146,1.247c0.0691,0.0697,0.1382,0.1496,0.2073,0.2194c0.227-0.0399,0.454-0.0299,0.681,0.0699    c0.4245,0.1895,0.7403,0.6084,0.7897,1.0674c0.0296,0.2393-0.0197,0.4788-0.1283,0.6783    c0.0493,0.0897,0.0987,0.1796,0.1579,0.2693c0.4837,0.0299,0.8686,0.3392,1.0562,0.7582    c0.1776,0.4189,0.1283,0.9177-0.1777,1.2968c0.0296,0.0998,0.0592,0.1995,0.0888,0.3092c0.158,0.0499,0.2961,0.1098,0.3948,0.1896    c0.237,0.1895,0.4048,0.4688,0.4542,0.7981c0.0789,0.4388-0.079,0.9077-0.464,1.197c0,0.1197,0.0098,0.2294,0.0098,0.3492    c0.1974,0.1196,0.3752,0.2593,0.4739,0.4689c0.2171,0.4189,0.1875,0.9476-0.0691,1.3366    c-0.1283,0.1995-0.3159,0.3193-0.5232,0.4091c-0.0197,0.1196-0.0296,0.2394-0.0592,0.3591    c0.3454,0.3292,0.4541,0.808,0.3257,1.237c-0.1283,0.4289-0.4738,0.7881-0.9475,0.8778    c-0.0395,0.0998-0.0888,0.2095-0.1283,0.3093c0.2566,0.4089,0.2369,0.9077,0.0196,1.2967    c-0.1678,0.2894-0.4145,0.4988-0.7007,0.5887c-0.1086,0.0398-0.227,0.0598-0.3751,0.0598c-0.0197,0-0.0396-0.01-0.0593-0.01    c-0.0592,0.0898-0.1283,0.1696-0.1875,0.2594c0.1579,0.4588,0.0296,0.9477-0.2764,1.2769    c-0.2369,0.2494-0.5724,0.4089-0.9279,0.4089c-0.0987,0-0.2072-0.0199-0.3158-0.0598c-0.079,0.0799-0.1579,0.1497-0.2467,0.2194    c0.0493,0.4889-0.1877,0.9179-0.5627,1.1672c-0.2073,0.1397-0.4639,0.2196-0.7205,0.2196c-0.1876,0-0.3752-0.06-0.5528-0.1597    c-0.0987,0.0499-0.1974,0.0997-0.306,0.1496c-0.0197,0.1596-0.0592,0.2993-0.1086,0.409    c-0.1481,0.2693-0.3949,0.4789-0.7008,0.5985c-0.1481,0.05-0.306,0.0799-0.4639,0.0799c-0.0396,0-0.0889,0-0.1284-0.01" style="fill:#464747;"/><path d="M27.36805,29.64623c0.0001,3.8489-6.7361,3.8115-6.7361-0.0324v-1.5963h6.7361V29.64623z" style="fill:#DDBEA8;"/><path d="M29.31135,24.83903c0.7811,0.1399,1.6349-0.5342,1.8629-1.4826    c0.228-0.9483-0.2009-2.1543-0.982-2.2944l-1.3548,2.0504l-0.1101-3.2207v-0.0001l0,0c0.1449-0.9324-0.6327-1.746-1.5597-1.6322    l-3.1727,0.3896l-3.1727-0.3896c-0.927-0.1138-1.7045,0.6998-1.5596,1.6322l0,0v0.0001l-0.1693,3.3171l-1.3496-2.1854    c-0.7277,0.1399-1.1455,1.3847-0.933,2.333c0.2125,0.9484,0.9747,1.6037,1.7026,1.4638c0.7135,2.6431,2.8494,4.7279,5.378,4.7279    C26.46675,29.54813,28.63865,27.55773,29.31135,24.83903z" style="fill:#F9D9C0;"/></g></g></svg>