<?xml version="1.0" ?><svg id="Layer_1" style="enable-background:new 0 0 48 48;" version="1.1" viewBox="0 0 48 48" xml:space="preserve" xmlns="http://www.w3.org/2000/svg" xmlns:xlink="http://www.w3.org/1999/xlink"><g id="Icons"><g><path d="M21.2583,28.33292l-0.4666,1.3102l-4.0928,0.8312l-1.0359,0.303    c-2.6669,0.7844-4.7848,2.6558-5.6924,5.0538l-1.3223,3.4962c0,0,14.713,6.0623,30.7034,0.0224l-1.3223-3.4961    c-0.9076-2.3981-3.0142-4.2694-5.6924-5.0538l-0.7722-0.2259l-4.7246-0.9308l-0.1884-1.499" style="fill:#F43735;"/><path d="M20.7071,27.67912l-0.1391,1.4l-3.87,1.3943c0,0,2.3939,6.3474,7.431,9.2844    c0,0,6.1435-4.0933,7.4309-9.1821l-4.1619-1.2165l-0.1069-1.4065C27.2911,27.95272,23.7281,30.42972,20.7071,27.67912z" style="fill:#F9D9C0;"/><path d="M27.3447,28.72762c-1.03,0.74-2.2359,1.0496-3.3276,1.0428    c-1.1122-0.0069-2.3548-0.4077-3.4048-1.1376l0.0549-0.5253l0.04-0.43c3.02,2.75,6.58,0.28,6.58,0.28l0.02,0.26L27.3447,28.72762z    " style="fill:#DDBEA8;"/><g><path d="M24.0114,31.08942c-1.1987,0-2.5639-0.376-3.9375-1.5264     c-0.1694-0.1416-0.1919-0.3945-0.0498-0.5635c0.1416-0.1699,0.3951-0.1914,0.5635-0.0498     c3.4404,2.8818,6.7061,0.294,6.8438,0.1826c0.1713-0.1396,0.4228-0.1142,0.5629,0.0586     c0.1392,0.1709,0.1133,0.4229-0.0581,0.5625C27.9109,29.77392,26.2536,31.08942,24.0114,31.08942z" style="fill:#82533F;"/></g><circle cx="24.11865" cy="31.73364" r="0.92502" style="fill:#FFFFFF;"/><path d="M18.0722,21.89532c0,0-0.6959-1.3855-0.9651-1.8292c-0.2692-0.4438-0.9685,0.0303-0.7042,1.2636    s0.2267,2.7241,1.4213,2.7296c0,0,0.5127,1.969,1.6875,3.109c1.1748,1.1401,2.9578,2.1677,4.4902,2.0831    c1.5323-0.0846,3.2357-0.5659,4.4033-2.1022c1.1676-1.5363,1.5445-3.0353,1.5445-3.0353s0.8342,0.3695,1.1905-0.7335    c0.3564-1.1031,0.9499-2.2805,0.1557-3.4299c0,0-0.6804,0.1415-1.2825,2.175c0,0,0.4894-3.1266,0.0013-4.0589    c-0.488-0.9322-1.7498-1.5235-1.9929-1.9375c-0.2431-0.414-0.4429-0.8673-0.4429-0.8673s-1.679,1.5128-4.4656,2.159    c0,0,0.3459-0.3892-0.2952-0.775c-0.6411-0.3859-3.4195,0.824-3.8751,1.2917C18.4874,18.40512,18.0143,20.89702,18.0722,21.89532z    " style="fill:#F9D9C0;"/><path d="M24.0703,5.97282c-1.9773-0.0556-3.9546,1.9211-3.2897,4.5884H27.36    C28.0249,7.89392,26.0476,5.91722,24.0703,5.97282z" style="fill:#82533F;"/><path d="M16.98196,19.93851c-1.4556-5.8392,2.75954-10.32409,7.08834-10.20219    c4.3289-0.1219,8.681,4.375,7.2256,10.2142c-0.6394,0.449-1.2825,2.175-1.2825,2.175c0.1961-0.8501-0.3176-2.8232-0.4252-3.4197    c-0.2217-1.2282-2.102-1.8056-2.2553-2.9223c0,0-2.79,2.5814-5.2271,3.0607c0,0,1.2186-1.6594-0.0962-1.4013    c-0.5102,0.1003-1.399,0.4749-2.2954,0.8959c-0.4153,0.1951-0.7482,0.5341-0.9241,0.9578    c-0.3009,0.7244-0.7261,1.9109-0.7261,2.8289L16.98196,19.93851z" style="fill:#A67358;"/><g><path d="M23.9782,26.51222c-0.9365,0-1.5669-0.3516-1.6059-0.374     c-0.1919-0.1094-0.2583-0.3535-0.1485-0.5449c0.1089-0.1934,0.3516-0.2598,0.544-0.1504     c0.0464,0.0273,1.1177,0.6054,2.4966-0.0157c0.2031-0.0908,0.4389-0.0009,0.5293,0.2002     c0.0908,0.2012,0.0009,0.4375-0.2002,0.5284C25.0017,26.42332,24.4509,26.51222,23.9782,26.51222z" style="fill:#CEAA91;"/></g><g><path d="M24.0114,24.56882c-0.1504,0-0.2924-0.0205-0.4262-0.0429     c-0.1241-0.0196-0.2476-0.041-0.3711-0.0655c-0.2168-0.0429-0.3579-0.2529-0.3155-0.4697     c0.0425-0.2168,0.2535-0.3574,0.4698-0.3154c0.1147,0.0225,0.2304,0.042,0.3457,0.0615     c0.1181,0.0186,0.2329,0.0283,0.3335,0.0313c0.1372-0.0069,0.2744-0.0371,0.4106-0.0664l0.1763-0.0352     c0.2124-0.042,0.4258,0.1006,0.4673,0.3184c0.041,0.2168-0.1016,0.4257-0.3189,0.4668l-0.1601,0.0332     c-0.1773,0.0371-0.3565,0.0732-0.5357,0.082C24.0617,24.56792,24.0363,24.56882,24.0114,24.56882z" style="fill:#CEAA91;"/></g><g><path d="M22.9421,20.66162c-0.0864,0-0.1733-0.0283-0.2466-0.0859     c-1.1294-0.8887-2.4546-0.4151-2.5097-0.3945c-0.2095,0.0751-0.4375-0.0284-0.5142-0.2354     c-0.0772-0.2061,0.0264-0.4355,0.2324-0.5137c0.0723-0.0283,1.7944-0.6592,3.2857,0.5147     c0.1738,0.1367,0.2041,0.3877,0.0673,0.5615C23.1779,20.60892,23.0608,20.66162,22.9421,20.66162z" style="fill:#CEAA91;"/></g><g><path d="M25.1984,20.66162c-0.1186,0-0.2358-0.0527-0.3149-0.1533     c-0.1367-0.1738-0.1064-0.4248,0.0674-0.5615c1.4902-1.1739,3.2124-0.543,3.2856-0.5147     c0.2061,0.0782,0.3096,0.3076,0.2325,0.5137c-0.0772,0.207-0.3062,0.3105-0.5142,0.2354     c-0.0552-0.0206-1.3784-0.4942-2.5098,0.3945C25.3718,20.63332,25.2849,20.66162,25.1984,20.66162z" style="fill:#CEAA91;"/></g><g><path d="M25.5515,21.73002c-0.1763,0-0.3379-0.1172-0.3863-0.2959     c-0.0576-0.2129,0.0684-0.4326,0.2818-0.4903c0.4048-0.1093,1.7715-0.4277,2.3281,0.0938     c0.1611,0.1514,0.169,0.4043,0.0176,0.5654c-0.1504,0.1612-0.4048,0.169-0.5654,0.0186     c-0.1368-0.1309-0.9156-0.083-1.5713,0.0937C25.6213,21.72512,25.5857,21.73002,25.5515,21.73002z" style="fill:#CEAA91;"/></g><g><path d="M22.5173,21.73002c-0.0347,0-0.0693-0.0049-0.1045-0.0147     c-0.667-0.1797-1.4316-0.2265-1.5708-0.0937c-0.1606,0.1504-0.415,0.1426-0.5654-0.0186     c-0.1514-0.1601-0.1436-0.414,0.0176-0.5654c0.5551-0.5205,1.9223-0.2031,2.3276-0.0938     c0.2134,0.0577,0.3393,0.2774,0.2817,0.4903C22.8552,21.61182,22.6936,21.73002,22.5173,21.73002z" style="fill:#CEAA91;"/></g></g></g></svg>