<?xml version="1.0" ?><svg style="enable-background:new 0 0 48 48;" version="1.1" viewBox="0 0 48 48" xml:space="preserve" xmlns="http://www.w3.org/2000/svg" xmlns:xlink="http://www.w3.org/1999/xlink"><g id="Icons"><g><polygon points="32.67555,26.58272 34.07935,29.53402 27.74435,27.82172   " style="fill:#D62525;"/><polygon points="15.41975,26.46392 13.81665,29.46082 20.35975,27.75562   " style="fill:#D62525;"/><path d="M20.82485,26.19502l-0.4055,1.4416l-6.1154,1.6117c-3.1146,0.8259-5.5703,2.8026-6.6268,5.3342    l-1.5403,3.6902c0,0,17.1212,6.4062,35.7263,0.0295l-1.5402-3.6902c-1.0566-2.5316-3.5124-4.5083-6.6269-5.3342l-5.745-1.5234    l-0.8632-1.8258" style="fill:#FFC601;"/><path d="M20.20915,25.87592l-0.1633,1.8497c0,0,3.7202,10.9189,3.7442,10.8747    c0.0152-0.0278,2.3514-4.1699,3.5693-7.3483c0.7109-1.8554,0.5917-3.4976,0.5917-3.4976l-0.2947-1.8258L20.20915,25.87592z" style="fill:#464747;"/><path d="M21.79515,8.60812c0,0-3.0683-0.026-4.4097,2.5016c-1.3413,2.5275-1.3138,3.8114-1.2277,6.0938    l-0.068,1.0205c0,0-0.68,0.5964-0.1691,2.0039c0.4402,1.2124,0.8736,1.9531,1.6683,1.9322c0,0,0.9414,2.637,1.9726,3.5216    c1.0312,0.8847,2.3893,2.0918,4.7568,1.9422c2.3675-0.1496,4.796-1.8604,5.8784-5.2845c0,0,1.255,0.005,1.6537-1.7809    c0.3988-1.7858-0.1739-2.4882-0.1739-2.4882v-3.7198c0,0-0.1121-3.0527-2.1377-4.4507c-0.7874-0.5434-2.1763-1.0065-3.5268-1.1899    C23.88825,8.42142,21.79515,8.60812,21.79515,8.60812z" style="fill:#F9D9C0;"/><path d="M25.13675,18.85992c0,0,1.6354,0.8658,1.7797,0.7936c0.1442-0.0721,2.5491-1.515,2.477-1.515    S26.74805,16.64742,25.13675,18.85992z" style="fill:#FFFFFF;"/><path d="M22.68845,18.85992c0,0-1.6353,0.8658-1.7796,0.7936c-0.1443-0.0721-2.5492-1.515-2.477-1.515    C18.50395,18.13852,21.07725,16.64742,22.68845,18.85992z" style="fill:#FFFFFF;"/><g><polyline points="27.95585,27.75562 27.58585,28.75562 27.39585,29.27562 23.79005,38.60032      30.30265,28.37802    " style="fill:#F43735;"/><polyline points="17.91925,28.28962 23.79005,38.60032 20.58585,29.27562 20.28585,28.40562      20.04585,27.72562    " style="fill:#F43735;"/></g><path d="M21.79515,8.60812l2.2451-1.7368l2.1549,1.8652c0,0-2.2051,8.2628-2.2813,8.1503    C23.83765,16.77422,21.79515,8.60812,21.79515,8.60812z" style="fill:#F43735;"/><path d="M23.91585,16.88562c-4.37-2.14-8.0901,1.15-8.0901,1.15l4.1201,2.94    c0.53,0.37,1.22,0.45,1.8199,0.2l2.1501-0.89l2.15,0.89c0.6,0.25,1.29,0.17,1.82-0.2l4.12-2.94    C32.00585,18.03562,28.28585,14.74562,23.91585,16.88562z M20.90585,19.65562c-0.1401-0.07-2.47-1.47-2.47-1.52    c0.07,0,2.6399-1.49,4.25,0.7201C22.68585,18.85572,21.05585,19.72562,20.90585,19.65562z M26.91585,19.65562    c-0.14,0.07-1.78-0.7999-1.78-0.7999c1.61-2.2101,4.1899-0.7201,4.26-0.7201    C29.39585,18.17562,27.05585,19.58562,26.91585,19.65562z" style="fill:#464747;"/><g><g><path d="M23.91625,22.47032c-0.062,0-0.1245-0.0147-0.1811-0.044l-0.7066-0.3593      c-0.1972-0.0996-0.2753-0.3409-0.1752-0.5381c0.1001-0.1963,0.3408-0.2754,0.5376-0.1748l0.5205,0.2646l0.4868-0.2607      c0.1953-0.1055,0.437-0.0313,0.5415,0.164c0.1045,0.1944,0.0312,0.4366-0.1636,0.5411l-0.6709,0.3593      C24.04615,22.45372,23.98125,22.47032,23.91625,22.47032z" style="fill:#CEAA91;"/></g><g><path d="M23.92555,24.72912c-0.4145,0-0.7739-0.1787-0.9653-0.3311      c-0.1724-0.1377-0.2012-0.3896-0.063-0.5615c0.1362-0.1729,0.3862-0.2022,0.5596-0.0654      c0.0771,0.0586,0.4746,0.3271,0.8808,0.0019c0.1734-0.1367,0.4248-0.1094,0.562,0.0625      c0.1377,0.1729,0.1099,0.4248-0.0629,0.5625C24.53205,24.64222,24.21515,24.72912,23.92555,24.72912z" style="fill:#CEAA91;"/></g></g></g></g></svg>