<?xml version="1.0" ?><svg id="Layer_1" style="enable-background:new 0 0 48 48;" version="1.1" viewBox="0 0 48 48" xml:space="preserve" xmlns="http://www.w3.org/2000/svg" xmlns:xlink="http://www.w3.org/1999/xlink"><g id="Icons"><g><path d="M20.272,27.81163l-5.8419,1.4494c-3.1314,0.8304-5.7948,2.4565-6.8571,5.0017l-1.5486,3.7102    c0,0,17.2137,6.4408,35.9194,0.0295l-1.5484-3.71c-1.0624-2.5453-3.9731-3.7367-7.1045-4.5671l-6.3837-1.9925" style="fill:#1FAA22;"/><path d="M19.8999,27.39773c0,0-2.1342,2.6372-2.3464,5.1237c0,0-3.4417-0.8815-7.2448,2.0642    s-4.2843,3.3873-4.2843,3.3873s0.6568-2.5059,1.8686-4.6082c1.2117-2.1022,2.8942-3.5125,5.7155-4.2796    C16.4297,28.31793,19.8999,27.39773,19.8999,27.39773z" style="fill:#D62525;"/><path d="M27.9566,27.39773c0,0,1.6086,2.6045,2.1638,5.0005c0,0,3.7678-0.7583,7.5709,2.1874    s4.2525,3.4168,4.2525,3.4168s-0.625-2.5354-1.8368-4.6377c-1.2117-2.1022-2.8942-3.5125-5.7155-4.2796    C31.5703,28.31793,27.9566,27.39773,27.9566,27.39773z" style="fill:#D62525;"/><path d="M20.1728,25.67573l-0.2729,1.722c0,0,1.7022,3.0911,4.0283,2.9193    c2.3261-0.1719,4.0284-2.9193,4.0284-2.9193l-0.3097-1.722c0,0-1.8866,1.387-3.811,1.2819    C21.9116,26.85253,20.1728,25.67573,20.1728,25.67573z" style="fill:#F9D9C0;"/><g><path d="M21.7822,7.15573c0,0-4.3688,1.3751-4.8864,4.9218s-0.2727,4.1727-0.2483,4.8718     c0.0244,0.699,0.3477,1.5382,0.6319,2.6616c0.2843,1.1235,0.2849,1.8616,0.6685,2.8335c0.352,0.8921,1.6069,4.0162,4.8734,4.8019     c0.6187,0.1488,1.2665,0.136,1.8886,0.0024c1.3462-0.2892,3.7306-1.1169,4.669-3.4216c1.3407-3.2925,0.9742-3.6219,1.4059-5.1231     c0.4316-1.5012,0.8222-1.9122,0.5993-5.0551s-1.4628-5.7126-5.2725-6.4932c0,0,0.1019,1.51477-0.51555,2.58047     c-0.58307,1.00636-1.97932,1.12955-2.85564,0.36484C22.1578,9.59263,21.6326,8.70134,21.7822,7.15573z" style="fill:#1FAA22;"/><path d="M17.5369,14.83843c0,0-0.7966,1.943-0.8273,2.6274c0.0536,0.4293,0.378,1.5588,0.6835,2.6395     l6.6861,3.2403l6.4547-3.4279c0,0,0.6813-2.4779,0.6899-2.6483c0.0166-0.328-0.2707-1.0191-0.9629-2.431l-6.1817,2.7153     L17.5369,14.83843z" style="fill:#FFC601;"/><polygon points="25.1063,18.92983 25.1063,19.30873 29.0275,19.30873 29.0275,17.23923    " style="fill:#FFFFFF;"/><polygon points="23.066,18.92983 23.066,19.30873 19.1447,19.30873 19.1447,17.23923    " style="fill:#FFFFFF;"/><g><path d="M24.0654,25.17303c-0.0655,0-0.1309-0.0166-0.19-0.0488l-0.7856-0.4239      c-0.1943-0.1045-0.2671-0.3467-0.1621-0.541c0.1045-0.1953,0.3472-0.2695,0.542-0.1621l0.6103,0.3291l0.7447-0.3408      c0.2016-0.0938,0.4379-0.003,0.5302,0.1963c0.0918,0.2011,0.0034,0.4384-0.1972,0.5302l-0.9258,0.4239      C24.1791,25.16033,24.122,25.17303,24.0654,25.17303z" style="fill:#158915;"/></g></g><path d="M19.8999,27.39773c0,0-1.944,1.833-2.3183,3.6737c-0.3742,1.8407-0.1265,3.7533,2.3183,4.7095    c0.2642,0.1034,0.5184,0.1959,0.7617,0.2785c1.9681,0.6691,4.1039,0.6889,6.0789,0.0402c0.8454-0.2777,1.7027-0.6524,2.287-1.1415    c1.5676-1.3121,1.2381-2.9892,1.003-3.8695c-0.235-0.8804-2.0739-3.6909-2.0739-3.6909    C25.5348,30.92533,22.9653,30.93183,19.8999,27.39773z" style="fill:#F43735;"/></g></g></svg>