<?xml version="1.0" ?><svg style="enable-background:new 0 0 48 48;" version="1.1" viewBox="0 0 48 48" xml:space="preserve" xmlns="http://www.w3.org/2000/svg" xmlns:xlink="http://www.w3.org/1999/xlink"><g id="Icons"><g><path d="M20.0057,27.56068l-5.8076,1.54c-3.1485,0.8349-5.6311,2.8333-6.6992,5.3925l-1.557,3.7304    c0,0,17.308,6.476,36.1162,0.0297l-1.557-3.7304c-1.0683-2.5592-3.5507-4.5575-6.6992-5.3924l-5.8076-1.54" style="fill:#464747;"/><path d="M20.7266,25.83118l-0.5065,1.6656l-4.9832,2.4789c-2.0305,0.5384-4.8228,0.6858-6.0986,2.0303    c-0.7025,0.7403-1.2601,1.5784-1.6394,2.4872l-1.557,3.7304c0,0,1.3229,0.495,3.6345,1.075    c0.6312,0.1584,1.5417-0.6618,2.3135-0.4991c0.5524,0.1165,0.9335,1.2168,1.5519,1.3281    c5.3627,0.9655,13.1153,1.624,21.6328-0.0187c0.5264-0.1015,0.9269-0.5626,1.4588-0.6821    c0.4304-0.0968,0.9913,0.1511,1.4248,0.042c1.3544-0.341,2.7231-0.7437,4.0999-1.2155l-1.557-3.7304    c-0.4183-1.0022-1.0535-1.9184-1.8607-2.7123c-1.2539-1.2336-4.0771-1.3269-5.9926-1.8349l-4.6535-2.3852l-0.1172-1.4439" style="fill:#464747;"/><path d="M20.1702,25.68728l-0.1645,1.8734c0,0,1.9153,3.0127,4.0231,2.8052s3.9655-2.7754,3.9655-2.7754    l-0.1286-2.0411L20.1702,25.68728z" style="fill:#F9D9C0;"/><path d="M21.0087,28.81888c0,0-4.9675,0.9809-6.4194,1.6154c-1.452,0.6345-1.9718,0.9984-1.9718,0.9984    s1.7685,3.3959,0.8243,8.6949c-1.1813-0.2054-2.4835-0.4909-3.865-0.8289c0,0,0.661-2.1098,0.2005-4.1385    c-0.4606-2.0287-0.639-3.1541-0.639-3.1541s1.3517-1.6599,3.7204-2.592c2.3686-0.9321,7.147-1.8534,7.147-1.8534L21.0087,28.81888    z" style="fill:#F43735;"/><path d="M26.9217,28.78848c0,0,5.1774,1.0113,6.6294,1.6458c1.4519,0.6345,1.9718,0.9984,1.9718,0.9984    s-1.3277,3.3655-0.3834,8.6645c0.8232-0.147,1.7821-0.3684,2.8187-0.6284c0,0-0.4663-2.63-0.0058-4.6586    c0.4606-2.0287,0.6851-3.0025,0.6851-3.0025s-0.9872-1.4615-3.3558-2.3936c-2.3686-0.9321-7.2874-1.8236-7.2874-1.8236    L26.9217,28.78848z" style="fill:#F43735;"/><path d="M26.0514,8.50218c0.0222-0.0779,0.2151-0.3224,0.2596-0.4003    c0.2224-0.3448,0.6007-0.545,0.9901-0.545c0.2226,0,0.4339,0.0667,0.6341,0.189l2.6034,1.6578    c0.5562,0.356,0.712,1.079,0.3671,1.6242c-0.0556,0.0779-0.3122,0.3655-0.3791,0.4211" style="fill:#464747;"/><path d="M17.3869,11.32798c-0.0669-0.0555-0.2544-0.2555-0.2989-0.3223    c-0.3449-0.5563-0.178-1.2794,0.3672-1.6354l2.6144-1.6466c0.2003-0.1223,0.4227-0.1892,0.6341-0.1892    c0.3895,0,0.7677,0.2004,1.0013,0.5564c0.0445,0.0555,0.1677,0.3115,0.1901,0.3783" style="fill:#464747;"/><path d="M23.9524,6.88938l-8.2661,5.3178l1.6357,4.9859c0,0-0.8133,0.3649-0.5603,1.6291    c0.2529,1.2642,0.1454,2.194,0.4019,2.4386c0.2566,0.2445,0.5072,0.6933,0.5072,0.6933s0.4325,2.758,2.2265,3.9126    c1.794,1.1547,3.0626,1.7724,4.2442,1.6022c1.1815-0.1703,4.6309-0.8754,6.2159-5.5089c0,0,0.2715-0.2368,0.6822-1.9911    c0.4108-1.7543,0.0655-1.8346,0.0655-1.8346s-0.0217-0.4412-0.5644-0.6415l1.6889-5.2856L23.9524,6.88938z" style="fill:#F43735;"/><path d="M32.2296,12.20718c-0.0346-0.0222-6.4169-0.5649-8.3167,3.6545c0,0-0.6357-3.8272-8.2266-3.6545    l0.901,5.2735c0,0-0.9433,0.1493-0.5323,1.6647c0.2199,0.8104,0.3694,1.5649,0.5346,2.0794    c0.1382,0.4304,0.6603,0.8944,1.0812,0.7293c0.5181-0.2031,1.3836-0.834,2.7244-1.5457C23.3869,18.82028,24,18.49488,24,18.49488    l5.6833,3.12c0,0,0.9709,0.8946,1.4199-0.1637c0.4491-1.0582,0.7708-2.8384,0.7708-2.8384s0.2336-0.9987-0.5468-1.1267    L32.2296,12.20718z" style="fill:#464747;"/><rect height="1.4588" style="fill:#FFFFFF;" width="4.319" x="25.5374" y="16.15528"/><rect height="1.4588" style="fill:#FFFFFF;" width="4.319" x="18.2357" y="16.15528"/></g></g></svg>