<?xml version="1.0" ?><svg style="enable-background:new 0 0 48 48;" version="1.1" viewBox="0 0 48 48" xml:space="preserve" xmlns="http://www.w3.org/2000/svg" xmlns:xlink="http://www.w3.org/1999/xlink"><g id="Icons"><g><g><path d="M31.15465,21.91517l-1.0199-0.2177l1.1061-5.1239l1.0132,0.2338     c0.8476,0.1833,1.3858,1.0079,1.2025,1.8554l-0.4466,2.05C32.83815,21.56017,32.00215,22.09837,31.15465,21.91517z" style="fill:#FFC601;"/></g><path d="M16.66825,21.91517l1.0555-0.2356l-1.0873-5.0706l-1.0647,0.1948    c-0.8447,0.1813-1.3827,1.013-1.2015,1.8577l0.4402,2.0522C14.99165,21.55847,15.82345,22.09637,16.66825,21.91517z" style="fill:#FFC601;"/><path d="M19.71345,25.38527c0,0,1.2429,4.1949,0.0619,6.4962l4.0094,3.7359l4.6103-3.5525    c0,0-1.719-3.3928,0-6.6396l-0.6866-0.214l-5.5269-0.3468L19.71345,25.38527z" style="fill:#DDBEA8;"/><path d="M6.10295,37.83547c0,0,0.9239-8.5808,7.495-10.7093c0.1488,0.2062,0.584,0.8361,0.939,1.6034    c0.4466,0.9505,1.8838,1.4493,1.3913,2.2281l7.8565,4.6597c0.6282-0.1958,8.9374-4.3206,8.9374-4.3206    c-0.9277-1.4431,1.2612-3.8385,1.5132-4.1935c0,0,5.4927,0.6518,7.6602,10.7618l0.0015,0.0035    c-18.6447,6.3906-35.7891-0.0343-35.7891-0.0343L6.10295,37.83547z" style="fill:#1D97FF;"/><path d="M19.71345,25.38527l-6.1155,1.7409c0,0,1.7244,2.42,1.2745,4.3703l8.9123,4.1209l-3.3735-3.848    C20.41125,31.76937,21.94755,28.46077,19.71345,25.38527z" style="fill:#464747;"/><path d="M28.25465,25.38527l6.1156,1.7409c0,0-1.7245,2.42-1.2745,4.3703l-9.311,4.1209l3.7722-3.848    C27.55695,31.76937,26.02055,28.46077,28.25465,25.38527z" style="fill:#464747;"/><path d="M16.46225,16.45067c0,0,0.5254,3.9595,1.3814,6.0574c0.856,2.0978,2.9993,4.8504,6.0447,4.6757    c3.0453-0.1747,5.0253-1.8689,5.9264-4.1933c0.901-2.3243,1.5346-6.3777,1.5346-6.3777s0.55-3.1957-0.8692-5.7171    c-1.4191-2.5215-5.0094-4.5031-9.5375-2.9804S16.19465,15.15057,16.46225,16.45067z" style="fill:#F9D9C0;"/><path d="M16.47925,16.63777c0.116,0.8758,0.2943,1.8002,0.4993,2.7884l13.8335,0.0096    c0.2188-1.0303,0.408-1.9968,0.5411-2.8434L16.47925,16.63777z" style="fill:#F43735;"/><path d="M28.37605,8.65677l-4.2703,3.3277l-4.8038-3.2204    C21.89395,6.91637,25.53015,6.74847,28.37605,8.65677z" style="fill:#FFC601;"/><g><path d="M24.10565,21.31637c-0.0596,0-0.1187-0.0137-0.1739-0.04l-0.6689-0.3223     c-0.1987-0.0957-0.2822-0.335-0.1865-0.5342c0.0966-0.1973,0.3349-0.2822,0.5341-0.1865l0.4952,0.2383l0.496-0.2383     c0.1988-0.0967,0.4375-0.0117,0.5337,0.1865c0.0957,0.1992,0.0122,0.4385-0.187,0.5342l-0.6694,0.3223     C24.22425,21.30267,24.16515,21.31637,24.10565,21.31637z" style="fill:#CEAA91;"/></g><g><path d="M23.97965,24.55167c-0.0205,0-0.0405,0-0.0606,0c-0.8325-0.0214-1.5854-0.4648-2.2382-1.3183     c-0.0923-0.1211-0.108-0.2842-0.0406-0.4199c0.0674-0.1368,0.2061-0.2237,0.3584-0.2237h4.2144     c0.1557,0,0.2973,0.0908,0.3628,0.2324c0.0654,0.1417,0.0429,0.3077-0.0576,0.4268     C26.47235,23.30267,25.39715,24.55167,23.97965,24.55167z M22.95225,23.39057c0.3145,0.2305,0.6436,0.3516,0.9834,0.3613     c0.4322-0.0078,0.8482-0.1582,1.1797-0.3613H22.95225z" style="fill:#CEAA91;"/></g></g></g></svg>