<?xml version="1.0" ?><svg style="enable-background:new 0 0 48 48;" version="1.1" viewBox="0 0 48 48" xml:space="preserve" xmlns="http://www.w3.org/2000/svg" xmlns:xlink="http://www.w3.org/1999/xlink"><g id="Icons"><g><polygon points="34.8924,21.97863 34.6989,18.58653 36.7587,15.70783 36.8461,19.19883   " style="fill:#1D97FF;"/><path d="M31.3973,28.45863l1.182-3.5284c0,0,2.2328,0.6291,2.6174,0.7547l-1.1436,3.5488" style="fill:#F4F4F4;"/><path d="M35.7285,22.37183l-0.5186-0.153c0.0292-0.0983,0.0515-0.1733,0.0576-0.1937    c0.0625-0.2119-0.0585-0.4346-0.2695-0.498c-0.2158-0.0596-0.4355,0.0586-0.498,0.2695    c-0.0017,0.0058-0.0243,0.0821-0.0581,0.1956l-0.5406-0.1595c-0.2158-0.0615-0.4336,0.0596-0.497,0.2705    c-0.0625,0.212,0.0586,0.4346,0.2705,0.4971l0.5387,0.1589c-0.4831,1.6192-1.4384,4.8065-1.7477,5.7415    c-0.0693,0.21,0.0449,0.4365,0.2539,0.5059c0.042,0.0136,0.084,0.0205,0.126,0.0205c0.1679,0,0.3242-0.1065,0.3799-0.2744    c0.3167-0.9576,1.2714-4.1441,1.7556-5.767l0.5207,0.1537c0.0381,0.0107,0.0762,0.0166,0.1133,0.0166    c0.1729,0,0.332-0.1133,0.3838-0.2871C36.0615,22.65703,35.9404,22.43433,35.7285,22.37183z" style="fill:#E6E6E6;"/><g><path d="M15.9251,28.59763l-1.1931-3.424c0,0-2.2171,0.6836-2.5584,0.863l1.0835,3.2583" style="fill:#F4F4F4;"/><path d="M14.8965,28.60623l-1.8297-5.5808l0.7603-0.2493c0.21-0.0684,0.3242-0.2949,0.2549-0.5049     c-0.0674-0.209-0.291-0.3242-0.5049-0.2549l-0.7594,0.2491l-0.0033-0.0098l-0.7597,0.25l0.0029,0.009l-0.7705,0.2527     c-0.21,0.0684-0.3242,0.2949-0.2549,0.5049c0.0547,0.168,0.2119,0.2754,0.3799,0.2754c0.041,0,0.083-0.0069,0.125-0.0205     l0.7698-0.2525l1.8298,5.5796c0.0547,0.169,0.2119,0.2764,0.3799,0.2764c0.041,0,0.083-0.0069,0.124-0.0205     C14.8506,29.04173,14.9658,28.81523,14.8965,28.60623z" style="fill:#E6E6E6;"/><polygon points="12.8263,16.96943 13.2571,20.26253 12.5572,22.48593 10.5547,21.22873 8.8546,18.14393      11.0524,18.16623    " style="fill:#1D97FF;"/></g><path d="M23.7152,8.42773c0,0-1.4011-0.8665-3.0361-0.0725c-0.2708,0.1315-0.5411,0.2693-0.8034,0.412    c-1.846,1.0039-3.7272,2.9121-3.9421,5.5691c-0.215,2.6571,0.1351,3.0417,0.1351,3.0417s-1.31-0.057,0,2.5854    c0.7975,1.6085,0.8053,1.6672,1.7299,1.6694c0.9245,0.0022,10.2089,1.367,10.2089,1.367s1.8782-1.2419,2.274-1.2675    c0.4758-0.0308,1.2963-0.8281,1.5782-1.7548c0.7267-2.3895,0.2081-2.3183-0.1521-2.8101c0,0,0.6108-3.1149-0.6726-5.3321    c-0.9135-1.578-2.4685-2.7241-3.888-3.5034C25.4607,7.40603,23.7152,8.42773,23.7152,8.42773z" style="fill:#F9D9C0;"/><path d="M27.1488,8.33293c0,0-2.7733,8.8591-6.4693,0.0221l3.2316-1.2344L27.1488,8.33293z" style="fill:#8D8D8D;"/><polygon points="23.9325,15.12743 16.0687,17.37803 22.781,19.41033 23.9112,18.13023 24.8097,19.41133     31.7076,17.16743   " style="fill:#F43735;"/><path d="M19.9895,27.27923l-5.8291,1.5458c-3.1601,0.838-5.6518,2.8437-6.7239,5.4124l-1.5628,3.7441    c0,0,17.372,6.5001,36.2498,0.03l-1.5629-3.7443c-1.0721-2.5686-3.5638-4.5742-6.7239-5.4123l-5.8292-1.5458" style="fill:#8D8D8D;"/><path d="M42.1263,38.00843c-4.57,1.57-9.06,2.38-13.23,2.69c-0.38,0.04-0.75,0.06-1.12,0.08    c-2.96,0.17-5.74,0.1-8.27-0.1c-0.37-0.03-0.73-0.06-1.09-0.1c-7.55-0.73-12.54-2.6-12.54-2.6l1.56-3.74    c1.07-2.57,3.56-4.58,6.72-5.41l0.03-0.01l0.93-0.25l4.87-1.29l0.5024-1.3902l6.7338-0.0272l0.7838,1.4474l4.12,1.09l0.93,0.25    l0.78,0.21c3.16,0.83,5.65,2.84,6.72,5.41L42.1263,38.00843z" style="fill:#FFC601;"/><path d="M20.1514,25.34323l-0.1619,1.936c0,0,2.1447,2.8159,4.167,2.5843    c2.0224-0.2315,3.851-2.5544,3.851-2.5544l-0.1233-2.1355C27.8842,25.17363,24.2779,28.48433,20.1514,25.34323z" style="fill:#DDBEA8;"/><path d="M17.5209,21.63283c0,0,1.7267,5.5817,6.2725,5.5609c4.5459-0.0209,6.5302-5.4836,6.4876-5.4615    C30.2385,21.75443,17.5209,21.63283,17.5209,21.63283z" style="fill:#464747;"/><path d="M33.0563,28.64843l-0.93-0.25l-8.56,7.61l-8.45-7.44l-0.93,0.25l8.77,7.72l-4.54,4.04    c0.36,0.04,0.72,0.07,1.09,0.1l4.06-3.6l4.21,3.7c0.37-0.02,0.74-0.04,1.12-0.08l-4.73-4.16L33.0563,28.64843z" style="fill:#A67358;"/></g></g></svg>