<?xml version="1.0" ?><svg style="enable-background:new 0 0 48 48;" version="1.1" viewBox="0 0 48 48" xml:space="preserve" xmlns="http://www.w3.org/2000/svg" xmlns:xlink="http://www.w3.org/1999/xlink"><g id="Icons"><g><path d="M20.5253,8.98853c0,0,0.1196-1.1771,1.5259-2.2405c1.4063-1.0634,3.3675-1.0933,4.5906,0.1826    c1.0526,1.098,1.226,2.3296,1.226,2.3296L20.5253,8.98853z" style="fill:#464747;"/><path d="M20.6632,10.84193c0,0-0.4033-1.0235-0.2325-1.6875c0.1707-0.6641,2.7889-1.271,4.4205-1.1098    c1.6316,0.1612,3.0166,1.2156,3.0166,1.2156s0.0282,1.1709-0.2894,1.6803C27.2607,11.45003,20.6632,10.84193,20.6632,10.84193z" style="fill:#FFC601;"/><path d="M16.8493,18.37533c0,0-0.3272-3.3469,1.2953-5.3019c1.6224-1.9551,2.7566-2.8048,5.6536-2.9276    c2.8971-0.1227,5.4415,0.9717,6.5,3.4683c1.0584,2.4967,0.9708,4.7127,0.9708,4.7127S21.2165,22.80913,16.8493,18.37533z" style="fill:#464747;"/><path d="M40.25,39.20793c-5.73,2.16-11.3,2.86-16.17,2.83c-0.27,0-0.53-0.01-0.8-0.01    c-9.09-0.2-15.53-2.85-15.53-2.85l1.4-3.7c0.96-2.54,3.2-4.52,6.03-5.35l5.23-1.52l1.13-0.95l4.88-0.12l0.92,1.36l1.57,0.12    l3.91,1.14c0.91,0.27,1.76,0.66,2.52,1.14c0.46,0.29,0.1,1.05,0.49,1.41c0.35,0.32,1.46,0.23,1.76,0.59    c0.53,0.67,0.96,1.41,1.26,2.21L40.25,39.20793z" style="fill:#6352C1;"/><polygon points="20.407,26.68813 20.407,28.47103 23.7864,32.58933 27.5949,28.63463 27.5295,26.64493       " style="fill:#DDBEA8;"/><path d="M18.7872,16.20833l0.137,2.5761c0,0-2.0278,1.0042-2.1885,2.0327    c-0.1607,1.0284-0.038,2.6417,1.496,3.6941c0,0,2.036,3.8224,5.5547,4.1234c3.5186,0.301,5.789-3.3845,6.2637-5.0077    c0,0,0.6809-0.0961,0.8966-1.6639c0.2156-1.5679-0.2637-2.0995-0.9494-2.2029c-0.6856-0.1033-0.7932-2.5964-0.4757-3.5518H18.7872    z" style="fill:#F9D9C0;"/><path d="M35.3445,31.29843l-3.2809,3.9435l5.5186-1.9426    C37.0189,32.53703,36.2779,31.87603,35.3445,31.29843z" style="fill:#FFC601;"/><path d="M12.6343,31.28373c-0.9142,0.5272-1.6215,1.2011-2.201,1.9654l5.5801,1.9928L12.6343,31.28373z" style="fill:#FFC601;"/><g><path d="M30.5892,25.69133c-0.0644,0-0.1299-0.0156-0.1904-0.0488     c-1.3633-0.7373-1.0791-3.6621-1.042-3.9932c0.0244-0.2207,0.2393-0.3808,0.4414-0.3535     c0.2197,0.0244,0.3779,0.2217,0.3535,0.4414c-0.0976,0.8809-0.0722,2.8232,0.6279,3.2022     c0.1944,0.1044,0.2666,0.3476,0.1612,0.5419C30.8685,25.61513,30.7308,25.69133,30.5892,25.69133z" style="fill:#464747;"/></g><g><path d="M17.3832,25.78213c-0.1407,0-0.2764-0.0742-0.3496-0.206     c-0.1075-0.1934-0.0381-0.4366,0.1552-0.544c0.5596-0.3115,0.6436-1.8027,0.4356-3.1142     c-0.0342-0.2188,0.1152-0.4229,0.333-0.458c0.2168-0.0293,0.4238,0.1142,0.458,0.333c0.1182,0.749,0.4072,3.2461-0.8379,3.9384     C17.516,25.76553,17.4496,25.78213,17.3832,25.78213z" style="fill:#464747;"/></g><g><path d="M24.19,33.95793l-0.11,8.08c-0.27,0-0.53-0.01-0.8-0.01l0.11-8.08c0-0.22,0.16-0.43,0.4-0.4     C24.01,33.55793,24.19,33.73793,24.19,33.95793z" style="fill:#48409B;"/></g><g><path d="M24.1761,26.41203c-0.0088,0-0.0175,0-0.0273,0c-0.9551-0.0098-1.4277-0.4893-1.6572-0.8906     c-0.0557-0.0977-0.0674-0.2129-0.0332-0.3194c0.0332-0.1064,0.1103-0.1943,0.2119-0.2412c0.082-0.039,0.1611-0.08,0.2392-0.1201     c0.1983-0.1035,0.4034-0.2109,0.6416-0.2695c0.4883-0.1172,0.9307-0.1084,1.3164,0.0224     c0.1914,0.0665,0.3721,0.1534,0.5616,0.2471l0.2431,0.1172c0.1016,0.0469,0.1787,0.1338,0.2129,0.2402     c0.0342,0.1065,0.0225,0.2227-0.0322,0.3194C25.6214,25.92673,25.1439,26.41203,24.1761,26.41203z M23.4877,25.44423     c0.1738,0.1094,0.3955,0.1651,0.6689,0.167c0.3223,0.0147,0.542-0.0654,0.6963-0.1611     c-0.0811-0.0371-0.1611-0.0703-0.2442-0.0996c-0.2412-0.0811-0.5341-0.083-0.8681-0.002     C23.6586,25.36903,23.5755,25.40223,23.4877,25.44423z" style="fill:#CEAA91;"/></g><path d="M23.7864,19.50043c-0.0119,0-0.0474,0-0.0592,0c-0.4507-0.0593-3.0121-0.3912-5.2652-0.9012    c-0.676-0.1542-1.3281-0.3202-1.8855-0.4981c-0.4032-0.1304-0.759-0.2608-1.0436-0.4031c0,0,0.7116,1.8736,1.9093,4.1504    c0.1423,0.0949,0.2965,0.166,0.4625,0.2135c0.3913,0.166,0.8538,0.2727,1.3874,0.2964l4.7089,0.6893l4.3034-0.6893    c0.5337-0.0237,0.9962-0.1304,1.3875-0.2964c0.166-0.0475,0.3202-0.1186,0.4625-0.2135c1.1977-2.2768,1.9091-4.1504,1.9091-4.1504    c-0.2845,0.1423-0.6403,0.2727-1.0435,0.4031c-0.5573,0.1779-1.2096,0.3439-1.8854,0.4981    c-2.2531,0.51-4.8145,0.8419-5.2652,0.9012C23.8576,19.50043,23.7982,19.50043,23.7864,19.50043z" style="fill:#FFC601;"/><path d="M20.407,28.47103l3.3794,4.1183l3.8085-3.9547l1.3202,0.3859c0,0-2.0598,3.6369-5.1287,5.6455    c0,0-3.6374-2.803-4.815-5.6414L20.407,28.47103z" style="fill:#FFC601;"/></g></g></svg>