<?xml version="1.0" ?><svg style="enable-background:new 0 0 48 48.00004;" version="1.1" viewBox="0 0 48 48.00004" xml:space="preserve" xmlns="http://www.w3.org/2000/svg" xmlns:xlink="http://www.w3.org/1999/xlink"><g id="Icons"><g><path d="M20.8044,25.73107l-0.3452,1.3896l-5.5906,1.4809c-2.9331,0.7778-5.2458,2.6394-6.2409,5.0235    l-1.4504,3.4752c0,0,16.1239,6.0331,33.6454,0.0278l-1.4504-3.4752c-0.9951-2.3842-3.3078-4.2457-6.2409-5.0236l-5.5826-1.4909    l-0.2921-1.7525" style="fill:#F43735;"/><path d="M29.9045,21.92617c0.8616,0.1528,0.6636-0.7019,0.9151-1.7371    c0.2517-1.0353,0.3343-1.8491,0.0683-2.5504l0.043-3.4916c0-7.9159-13.9335-7.9159-13.9335,0l0.1513,3.6766    c-0.4425,0.577,0.0003,4.2553,0.8032,4.1025" style="fill:#464747;"/><path d="M27.601,27.35106c0,3.7178-7.2019,3.6816-7.202-0.0313v-1.8543l7.202-0.0796V27.35106z" style="fill:#DDBEA8;"/><path d="M18.4216,15.53787l-0.075,3.3477l-1.1979-1.0619c0,0-1.3375,0.4238-1.1634,2.1496    c0,0,0.174,1.7917,1.9058,1.9735c0,0,0.727,2.8116,2.9291,4.2013c2.2022,1.3897,7.2171,1.7934,9.0605-4.0849    c0,0,1.4453,0.0777,1.933-1.2968c0.4877-1.3744,0.1408-2.5291-0.9258-3.1277l-1.3232,1.5364v-3.6372H18.4216z" style="fill:#F9D9C0;"/></g></g></svg>