<?xml version="1.0" ?><svg style="enable-background:new 0 0 48 48;" version="1.1" viewBox="0 0 48 48" xml:space="preserve" xmlns="http://www.w3.org/2000/svg" xmlns:xlink="http://www.w3.org/1999/xlink"><g id="Icons"><g><path d="M30.52835,32.39756c-0.5607-1.0093-1.24-1.7503-0.4325-4.3858    c0.3028-0.9869,1.1088-2.2247,1.8987-4.02c1.687-3.8341,1.7489-7.9463-0.7745-11.9725c-1.671-2.6804-4.7888-4.1495-7.9178-3.8691    c-2.8417,0.2546-5.4053,1.951-6.7324,4.4808c-1.0481,1.998-1.3754,3.3156-1.3105,5.5477c0.0326,1.1182,0.1591,2.2421,0.397,3.3357    c0.2578,1.1853,0.8954,2.2523,0.791,3.5124c-0.1869,2.2546-2.3104,4.3928-4.1338,5.5173" style="fill:#464747;"/><path d="M21.06855,25.48606c0,0-1.3591-1.3137-1.8131-1.981l-0.8703-0.8444    c0,0,1.1256,3.7347,0.6688,5.1339l1.8803-0.3358C20.93425,27.45877,20.81215,26.01977,21.06855,25.48606z" style="fill:#303030;"/><path d="M20.69155,26.05536l-0.0897,1.1214l-1.4131,0.4151l-2.1756,0.6392h-0.0113l-1.3458,0.3925    c-0.6392,0.1906-1.2449,0.4374-1.8056,0.7401c-0.0785,0.0449-0.1234,0.0673-0.1234,0.0673    c-1.7495,0.9646-3.0953,2.4674-3.7682,4.2505l-1.3233,3.4991c0,0,14.7251,6.0673,30.7289,0.0225l-1.3234-3.4991    c-0.9084-2.4-3.0168-4.273-5.6972-5.058l-2.1757-0.6392" style="fill:#6352C1;"/><path d="M27.94965,27.13807c0.0001,3.8489-7.3558,3.8115-7.3559-0.0324v-2.3744l7.3559,0.7781V27.13807z" style="fill:#DDBEA8;"/><path d="M28.74785,19.97676c0,0,1.0705,2.2701-0.8483,5.0281c-1.9189,2.7579-2.4611,2.8482-1.1734,5.4687    c1.2876,2.6205,4.4256,3.0352,1.8401,6.1373c0,0,3.3331-2.184,2.6328-3.8105c-0.7003-1.6265-1.7632-2.3358-1.0392-5.0423    C30.88395,25.05157,31.49545,22.64977,28.74785,19.97676z" style="fill:#2C2D2D;"/><path d="M21.03775,12.90127c0,0-0.0656,1.7978-1.4267,3.8262c-1.361,2.0284-1.9401,3.7381-1.5229,5.1715    c0.4172,1.4334,1.8118,3.1815,3.2653,4.2815c1.4535,1.0999,4.0069,1.4142,5.8335-0.2947    c1.8267-1.7088,2.2665-4.2327,1.7127-5.5831c-0.5538-1.3504-1.3721-1.3941-2.8914-2.339    C24.48885,17.01867,21.64515,15.09977,21.03775,12.90127z" style="fill:#F9D9C0;"/></g></g></svg>