<?xml version="1.0" ?><svg style="enable-background:new 0 0 48 48;" version="1.1" viewBox="0 0 48 48" xml:space="preserve" xmlns="http://www.w3.org/2000/svg" xmlns:xlink="http://www.w3.org/1999/xlink"><g id="Icons"><g><path d="M17.7046,19.69876c0,0,1.8221-1.51,1.4402-3.9596c0,0,1.1663-1.5642,4.8094-0.084    c0,0,1.2585-1.6301,4.6853-0.2689c0,0,0.6287,1.8553,1.5125,4.6718l1.285-1.131c0,0,1.0487-3.4241,0.3988-6.0976    c-0.6499-2.6735-2.3244-4.7778-7.6687-4.6488c-5.3442,0.129-6.0146,0.6141-7.6808,3.5842    c-1.6663,2.9701-0.0649,7.1296-0.0649,7.1296L17.7046,19.69876z" style="fill:#464747;"/><path d="M19.3879,29.21796l-1.2443,1.0663l-0.6191-0.5724l-3.3852,0.8972    c-3.1625,0.8409-5.6617,2.8545-6.7396,5.4248l-1.5635,3.7548c0,0,17.4117,6.5145,36.3276,0.0237l-1.5635-3.743    c-1.0779-2.5821-3.5771-4.5838-6.7396-5.4248l-3.4661-0.9193l-1.7948,0.4606" style="fill:#1D97FF;"/><path d="M19.5465,29.15647l-1.3329,0.3669c0,0,0.3014,5.3145,4.1409,7.1123l-0.0893,1.5719h3.4141    l-0.2533-1.6123c0,0,3.8012-1.9332,4.1541-7.0981l-1.2252-0.3255c0,0-1.9417,1.6854-4.2584,2.8905    C24.0965,32.06216,20.5377,31.03576,19.5465,29.15647z" style="fill:#DDBEA8;"/><path d="M22.3545,37.40287l-0.8844,1.0013l-0.0399,4.2177c0,0,3.731,0.0694,4.5713,0v-3.652l-0.4772-1.6317    C25.5243,37.33817,23.9437,38.14676,22.3545,37.40287z" style="fill:#464747;"/><path d="M17.4909,23.45457c0,0-0.0269,5.7449,6.3993,10.3073c0,0,6.0231-3.7977,6.4688-10.3372    c0,0-1.0164,0.6657-3.1586-0.1757c-2.1422-0.8415-2.7831-1.1659-3.2754-0.7944c0,0-0.6924-0.5698-3.0518,0.6271    C18.5137,24.27867,17.4909,23.45457,17.4909,23.45457z" style="fill:#464747;"/><path d="M18.23,15.05756c0,0,0.2246,2.8429-0.4879,4.5442l-1.3207-0.7073c0,0-1.2397,0.8375-1.0472,2.1919    c0.1925,1.3545,0.8898,2.3206,2.0943,2.3161c0,0,0.4656,1.2645,2.0117,0.7615c1.546-0.5031,3.3769-1.6428,4.4452-0.6897    c0,0,1.2619-0.7198,3.0342,0.1799c1.7723,0.8996,3.0401,0.2307,3.3994-0.2295c0,0,1.5858,0.079,2.0381-1.3012    c0.4523-1.3802-0.1331-2.701-0.9601-3.1964l-1.2326,0.7717c0,0-1.0591-3.1935-0.5254-4.6412c0,0-2.6468-1.4598-5.7248,0    C23.9542,15.05756,20.9654,13.34486,18.23,15.05756z" style="fill:#F9D9C0;"/><g><path d="M25.2502,25.40767h-2.5156c-0.2207,0-0.3999-0.1797-0.3999-0.4004     c0-0.2207,0.1792-0.4003,0.3999-0.4003h2.5156c0.2207,0,0.3999,0.1796,0.3999,0.4003     C25.6501,25.22796,25.4709,25.40767,25.2502,25.40767z" style="fill:#DDBEA8;"/></g><g><path d="M23.9763,22.32176c-0.0586,0-0.1172-0.0137-0.1714-0.0391l-0.6274-0.2978     c-0.1998-0.0947-0.2847-0.333-0.19-0.5332c0.0947-0.1983,0.3325-0.2862,0.5327-0.1895l0.4605,0.2188l0.4907-0.2217     c0.2021-0.0908,0.438-0.001,0.5293,0.1992c0.0908,0.2022,0.001,0.4385-0.2002,0.5293l-0.6597,0.2979     C24.0886,22.31006,24.0324,22.32176,23.9763,22.32176z" style="fill:#CEAA91;"/></g><circle cx="28.06853" cy="41.01741" r="0.60378" style="fill:#464747;"/><g><path d="M25.028,18.38037c-0.2075,0-0.3833-0.1611-0.3984-0.3711     c-0.0161-0.2207,0.1499-0.4121,0.3701-0.4287c0.0152-0.001,1.5274-0.1094,3.6651-0.1797c0.0044-0.001,0.0087-0.001,0.0136-0.001     c0.2144,0,0.3921,0.1709,0.3994,0.3867c0.0074,0.2217-0.166,0.4063-0.3867,0.4131c-2.1206,0.0703-3.6186,0.1778-3.6338,0.1797     C25.0476,18.37936,25.0378,18.38037,25.028,18.38037z" style="fill:#CEAA91;"/></g><g><path d="M27.6379,19.67526c-0.0352,0-0.0713-0.0049-0.1069-0.0146     c-0.8282-0.2315-1.961,0.0029-1.9722,0.0058c-0.2139,0.044-0.4282-0.0937-0.4736-0.3086     c-0.0459-0.2168,0.0923-0.4287,0.3081-0.4746c0.0542-0.0097,1.3325-0.2763,2.3515,0.0059     c0.2129,0.0596,0.3374,0.2793,0.2784,0.4922C27.9743,19.55906,27.8132,19.67526,27.6379,19.67526z" style="fill:#CEAA91;"/></g><g><path d="M22.8488,18.38037c-0.0097,0-0.0195-0.001-0.0293-0.001     c-0.0151-0.0019-1.5136-0.1094-3.6342-0.1797c-0.2207-0.0068-0.3941-0.1914-0.3868-0.4131     c0.0074-0.2158,0.1851-0.3867,0.3995-0.3867c0.0048,0,0.0092,0,0.0136,0.001c2.1377,0.0703,3.6504,0.1787,3.6656,0.1797     c0.2202,0.0166,0.3862,0.208,0.3701,0.4287C23.2321,18.21926,23.0564,18.38037,22.8488,18.38037z" style="fill:#CEAA91;"/></g><g><path d="M20.239,19.67526c-0.1753,0-0.3365-0.1162-0.3853-0.2939     c-0.0591-0.2129,0.0655-0.4326,0.2783-0.4922c1.0205-0.2832,2.2979-0.0166,2.3516-0.0059     c0.2158,0.0459,0.354,0.2578,0.3081,0.4746c-0.0454,0.2149-0.2544,0.3545-0.4736,0.3086     c-0.0113-0.0019-1.1426-0.2363-1.9722-0.0058C20.3103,19.67036,20.2741,19.67526,20.239,19.67526z" style="fill:#CEAA91;"/></g><path d="M18.2596,29.51066c0,0,0.116,4.2895,4.1411,6.9955v3.6896l-3.3002-3.719l-1.9491,0.9373    c0,0-1.8935-4.1106,0.3724-7.7021L18.2596,29.51066z" style="fill:#F4F4F4;"/><path d="M29.5801,29.49716c0,0-0.129,4.303-4.1541,7.009v3.6896l3.3002-3.719l1.9491,0.9373    c0,0,1.9859-4.0971-0.28-7.6886L29.5801,29.49716z" style="fill:#F4F4F4;"/></g></g></svg>