<?xml version="1.0" ?><svg style="enable-background:new 0 0 48 48;" version="1.1" viewBox="0 0 48 48" xml:space="preserve" xmlns="http://www.w3.org/2000/svg" xmlns:xlink="http://www.w3.org/1999/xlink"><g id="Icons"><g><path d="M20.1411,26.00032l-0.1285,1.4883l-5.7343,1.6943c-0.2859,0.0758-0.6225,0.0564-0.8896,0.1366    c-0.0321,0.0096-0.0381-0.0992-0.0709-0.0875c-2.6941,0.9556-4.8329,2.8829-5.7906,5.1773l-1.5543,3.724    c0,0,2.1582,0.8075,5.778,1.5677c1.5118,0.3175,3.3082-0.6126,5.2793-0.374c1.4865,0.1801,3.0596,1.5593,4.7566,1.6324    c1.3229,0.0569,2.7031,0.0732,4.1304,0.0363c1.8529-0.048,3.7539-1.7009,5.7428-1.9561c1.4154-0.1817,2.8908,1.0922,4.3555,0.7815    c1.9731-0.4184,3.9836-0.963,6.0116-1.658l-1.5543-3.7241c-0.9789-2.3452-3.2298-4.2707-6.0103-5.207    c-0.2485-0.0837-0.4844,0.1257-0.7422,0.0573l-5.8511-1.6059l0.0012-1.6063" style="fill:#F4F4F4;"/><path d="M20.0126,27.48862c0,0-3.7025,6.7661,1.7742,13.4707c-3.4654-0.1728-6.8238-0.5654-10.0362-1.2585    c0,0-0.4849-6.4718,1.5672-10.4688L20.0126,27.48862z" style="fill:#464747;"/><path d="M28.0169,27.61682c0,0,3.3768,6.6742-2.0999,13.3788c3.5824-0.1232,6.9744-0.4828,10.0991-1.1746    c0,0,0.4985-6.592-1.5536-10.589L28.0169,27.61682z" style="fill:#464747;"/><path d="M20.1411,25.77252l-0.1285,1.7161l0.6347,2.0581l3.3582-0.1202l2.7306,0.1202l1.2808-1.9299    l-0.1621-1.8443C27.8548,25.77252,24.4472,29.02162,20.1411,25.77252z" style="fill:#DDBEA8;"/><path d="M32.203,20.46702c-0.63,1.95-1.8601,1.41-1.8601,1.41c-0.37,2.63-2.79,4.28-2.79,4.28    c-1.06,0.95-2.15,1.31-3.15,1.35c-0.28,0.02-0.54,0.0101-0.8-0.02c-1.7799-0.19-3.11-1.2199-3.11-1.2199    c-2.2299-1.5501-3.06-4.3701-3.06-4.3701c-1.72-0.14-1.94-1.85-1.94-1.85c-0.5-1.94,1.16-2.86,1.16-2.86    c0.01-1.9199,0.38-3.68,0.38-3.68c0.03-1.4,1.02-2.89,1.02-2.89c0.3401-0.56,1.41,0.14,2.67,0.37    c1.26,0.23,4.0301-0.4,6.2801-0.77c2.25-0.36,3.0599,0.48,3.4099,1.31c0.36,0.82,0,1.21,0.76,2.56c0.75,1.34,0.14,3.23,0.14,3.23    S32.823,18.51712,32.203,20.46702z" style="fill:#F9D9C0;"/><path d="M24.0506,6.98492c0,0-0.0318,0-0.0903,0c-0.8177-0.0096-6.9289,0.111-7.5554,5.4019    c0,0-0.4513,2.9687,0.292,4.9286c0,0-0.1593-2.3702,0.7061-2.8288c0.8708-0.4586-0.361-3.7605,2.0602-3.4853    c0.9912,0.1123,1.8775,0.2084,2.6029,0.2838c1.1151,0.1157,3.6193,0.0242,3.6193,0.0242c0.7707-0.0668,1.7507-0.1814,2.8623-0.308    c2.4211-0.2752,1.1947,3.0267,2.0601,3.4853c0.8655,0.4586,0.7062,2.8288,0.7062,2.8288c0.7434-1.9599,0.292-4.9286,0.292-4.9286    C30.9795,7.09592,24.8682,6.97532,24.0506,6.98492c0,0-0.0318,0-0.0903,0" style="fill:#464747;"/><g><path d="M23.9542,23.83882c-0.7837,0-1.3862-0.3857-1.4238-0.4101     c-0.1846-0.1211-0.2363-0.3692-0.1153-0.5547c0.1207-0.1836,0.3677-0.2334,0.5523-0.1162     c0.042,0.0283,0.9766,0.6094,1.8442,0.0068c0.1822-0.126,0.4312-0.0801,0.5567,0.1016c0.1259,0.1816,0.081,0.4306-0.1006,0.5566     C24.817,23.73532,24.3609,23.83882,23.9542,23.83882z" style="fill:#CEAA91;"/></g><g><path d="M24.4029,24.83702v2.67c-0.28,0.02-0.54,0.0101-0.8-0.02v-2.65c0-0.22,0.18-0.4,0.4001-0.4     C24.2229,24.43702,24.4029,24.61702,24.4029,24.83702z" style="fill:#464747;"/></g><g><g><path d="M19.0367,18.06542c-0.0278,0-0.0561-0.0029-0.0844-0.0098l-2.5396-0.5449      c-0.2158-0.0459-0.3535-0.2588-0.3071-0.4746c0.0469-0.2148,0.2612-0.3564,0.4751-0.3066l2.5395,0.5449      c0.2158,0.0459,0.3535,0.2588,0.3072,0.4746C19.3868,17.93652,19.2213,18.06542,19.0367,18.06542z" style="fill:#464747;"/></g><g><path d="M29.0226,18.16112c-0.1846,0-0.3501-0.1289-0.3907-0.3164      c-0.0463-0.2158,0.0914-0.4287,0.3072-0.4746l2.5395-0.5449c0.2188-0.0518,0.4287,0.0908,0.4751,0.3066      c0.0464,0.2158-0.0913,0.4287-0.3071,0.4746l-2.5396,0.5449C29.0787,18.15822,29.0504,18.16112,29.0226,18.16112z" style="fill:#464747;"/></g><g><path d="M25.0826,18.33792H23.36c-0.2207,0-0.3999-0.1797-0.3999-0.4004      c0-0.2207,0.1792-0.4004,0.3999-0.4004h1.7226c0.2207,0,0.3999,0.1797,0.3999,0.4004      C25.4825,18.15822,25.3033,18.33792,25.0826,18.33792z" style="fill:#464747;"/></g></g><path d="M28.1032,23.05462c-0.0562-0.2138-0.2769-0.3408-0.4883-0.2851    c-2.4141,0.6396-3.2139-1.1309-3.2476-1.2061c-0.0097-0.0227-0.0271-0.0385-0.0403-0.0583    c-0.0143-0.0216-0.0255-0.0448-0.0439-0.0634c-0.0271-0.0272-0.0598-0.046-0.093-0.0642    c-0.0115-0.0064-0.0194-0.0168-0.0318-0.0221c-0.0012-0.0005-0.0025-0.0003-0.0037-0.0008    c-0.0411-0.0172-0.0853-0.0247-0.1302-0.0276c-0.0074-0.0005-0.0147-0.0042-0.0221-0.0042    c-0.0371-0.0003-0.0737,0.0105-0.1106,0.0209c-0.013,0.0038-0.0272,0.0031-0.0398,0.0081    c-0.0026,0.0011-0.0054,0.0006-0.008,0.0017c-0.0319,0.0134-0.0559,0.036-0.0822,0.0561    c-0.0129,0.0098-0.0279,0.0158-0.0397,0.0272c-0.0287,0.0281-0.049,0.0618-0.0679,0.0965    c-0.0061,0.0109-0.016,0.0185-0.0211,0.0301c-0.0332,0.0752-0.8365,1.8379-3.2476,1.2061    c-0.2114-0.0566-0.4321,0.0713-0.4883,0.2851c-0.0561,0.2139,0.0713,0.4327,0.2852,0.4883    c0.4394,0.1162,0.8384,0.1651,1.1997,0.1651c1.3699,0,2.1926-0.714,2.618-1.2502c0.4253,0.5362,1.2478,1.2502,2.6183,1.2502    c0.3608,0,0.7603-0.0489,1.1997-0.1651C28.0319,23.48732,28.1593,23.26852,28.1032,23.05462z" style="fill:#464747;"/><path d="M24.4396,17.62942c0,0,2.0991-1.409,5.1086-0.2171c0,0,0.1262,2.2895-0.5462,2.939    c-0.6722,0.6495-2.1912,0.9154-3.1437,0.185C24.9055,19.80592,24.4396,17.62942,24.4396,17.62942z" style="fill:#464747;"/><path d="M23.7556,17.62942c0,0-2.0992-1.409-5.1086-0.2171c0,0-0.1262,2.2895,0.546,2.939    c0.6723,0.6495,2.1912,0.9154,3.144,0.185C23.2895,19.80592,23.7556,17.62942,23.7556,17.62942z" style="fill:#464747;"/><path d="M24.0055,29.42652l-3.52,3.0679c0,0-1.7692-3.2216-0.4729-5.0058L24.0055,29.42652l4.0114-1.8097    c0,0,0.9215,2.7831-0.4914,4.8776L24.0055,29.42652" style="fill:#F43735;"/></g></g></svg>