<?xml version="1.0" ?><svg style="enable-background:new 0 0 48 48;" version="1.1" viewBox="0 0 48 48" xml:space="preserve" xmlns="http://www.w3.org/2000/svg" xmlns:xlink="http://www.w3.org/1999/xlink"><g id="Icons"><g><path d="M31.83465,33.80813c-4.9805,3.8217-10.4729,3.7843-15.6653,0c0,0-0.3627,4.255,0.8361,7.5957    c4.5714,1.223,9.2349,1.2154,13.9891,0C30.99455,41.40383,32.78655,37.45243,31.83465,33.80813z" style="fill:#FFC601;"/><path d="M20.52235,25.54643c-0.0058,0.0061-0.445,2.0015-0.445,2.0015l-3.0214,0.9912    c0,0-0.8165,3.6032-0.706,5.3915c0,0,3.7037,3.1219,7.7656,3.1336c4.1119,0.0119,7.591-3.1336,7.591-3.1336l-0.801-5.4876    l-3.0599-0.8596l-0.5422-2.1366L20.52235,25.54643z" style="fill:#F9D9C0;"/><path d="M21.83755,9.66943c0,0-4.1244,1.6386-4.7539,3.94c-0.6295,2.3015-0.7002,3.8928-0.7002,3.8928    l-0.425,0.4289c0,0-0.5308,1.6236,0,2.6771s1.7236,1.042,1.7236,1.042s0.7835,2.3443,2.2589,3.7468    c1.4753,1.4025,4.8711,2.848,7.5826,0.189c2.7114-2.659,2.6004-4.0489,2.6004-4.0489s1.2002-1.6775,0.2913-3.3262    c-0.9088-1.6487-1.6922-3.7658-2.7732-4.2913C26.56105,13.39413,22.67315,11.64183,21.83755,9.66943z" style="fill:#F9D9C0;"/><path d="M25.49505,22.99793c-0.3351,0.6794-0.9113,0.9914-1.6807,0.9828    c-0.7535-0.0086-1.3097-0.3301-1.6342-0.9799c0.3504-0.1867,0.6584-0.4211,1.0049-0.5173    c0.4384-0.1217,0.9166-0.1545,1.3578,0.0179C24.86175,22.62613,25.15455,22.81733,25.49505,22.99793z" style="fill:#F43735;"/><path d="M24.60505,23.11083c-0.1552,0.2615-0.4219,0.3815-0.7782,0.3782    c-0.349-0.0033-0.6065-0.127-0.7568-0.3771c0.1623-0.0718,0.3049-0.162,0.4654-0.199c0.203-0.0469,0.4244-0.0595,0.6287,0.0069    C24.31185,22.96773,24.44745,23.04133,24.60505,23.11083z" style="fill:#F9D9C0;"/><g><path d="M22.54625,16.57073c-0.0874,0-0.1753-0.0293-0.249-0.0879     c-1.272-1.0147-2.7612-0.4756-2.8228-0.4512c-0.205,0.0791-0.437-0.0254-0.5156-0.2324     c-0.0781-0.2061,0.0244-0.4365,0.2305-0.5147c0.0791-0.0332,1.9697-0.7333,3.6069,0.5733     c0.1729,0.1377,0.2012,0.3896,0.063,0.5615C22.78065,16.51893,22.66395,16.57073,22.54625,16.57073z" style="fill:#CEAA91;"/></g><g><path d="M25.48965,16.56873c-0.1182,0-0.2354-0.0527-0.314-0.1523     c-0.1372-0.1729-0.1079-0.4248,0.0654-0.5615c0.6709-0.5313,1.4873-0.7979,2.4112-0.7862     c0.2207,0.0049,0.3965,0.1875,0.3921,0.4082c-0.0039,0.2178-0.1827,0.3926-0.3999,0.3926     c-0.0201,0.001-0.0508-0.001-0.0762-0.001c-0.7007,0-1.3159,0.2061-1.8311,0.6133     C25.66395,16.54043,25.57655,16.56873,25.48965,16.56873z" style="fill:#CEAA91;"/></g><g><path d="M23.84505,21.15173c-0.1538,0-0.3017-0.0214-0.4409-0.0439     c-0.1313-0.0205-0.2612-0.044-0.3916-0.0693c-0.2168-0.042-0.3584-0.252-0.3164-0.4688c0.042-0.2178,0.25-0.3594,0.4688-0.3164     c0.1216,0.0234,0.2436,0.0449,0.3667,0.0654c0.1264,0.0205,0.2505,0.041,0.3559,0.0323c0.145-0.0069,0.2876-0.0381,0.4292-0.0674     l0.1978-0.0401c0.2158-0.0341,0.4258,0.1045,0.4658,0.3213c0.0395,0.2178-0.104,0.4258-0.3213,0.4658l-0.1792,0.0362     c-0.1831,0.0381-0.3677,0.0742-0.5522,0.083C23.89975,21.15173,23.87245,21.15173,23.84505,21.15173z" style="fill:#CEAA91;"/></g><g><path d="M25.74495,18.09903c-0.1757,0-0.3374-0.1172-0.3857-0.2959     c-0.0576-0.2129,0.0684-0.4326,0.2817-0.4902c0.4258-0.1153,1.8589-0.4473,2.438,0.0937     c0.1612,0.1514,0.1695,0.4043,0.0186,0.5654c-0.1524,0.1612-0.4048,0.169-0.5654,0.0186     c-0.1529-0.1445-0.9698-0.0977-1.6822,0.0938C25.81485,18.09413,25.77965,18.09903,25.74495,18.09903z" style="fill:#CEAA91;"/></g><g><path d="M21.81095,18.09903c-0.0342,0-0.0694-0.0049-0.1045-0.0146     c-0.7119-0.1905-1.5303-0.2364-1.6826-0.0938c-0.1612,0.1514-0.4146,0.1426-0.5655-0.0186     c-0.1509-0.1611-0.1426-0.414,0.0186-0.5654c0.5791-0.542,2.0127-0.2099,2.4385-0.0937     c0.2133,0.0576,0.3393,0.2763,0.2817,0.4902C22.14885,17.98083,21.98715,18.09903,21.81095,18.09903z" style="fill:#CEAA91;"/></g><path d="M23.69795,5.88833c0,0-3.1592-0.9958-5.7612,1.3855c-2.6019,2.3814-3.92,4.2375-3.6145,6.2534    c0.3056,2.0159,0.7917,4.3068,2.7203,5.4176c0,0-0.5732-2.8843,0.5166-4.9669s3.1117-3.8574,3.7504-3.8393    c0,0,1.2257,2.3128,3.683,3.5807c2.4573,1.268,7.1837,4.0803,5.1314,7.8178c0,0,2.1688-1.5002,2.7714-4.4772    s-0.0408-7.2163-2.7714-9.4584S23.69795,5.88833,23.69795,5.88833z" style="fill:#A67358;"/><path d="M26.58025,10.01283c0,0-4.7207-1.0866-7.2478,1.2277c-2.5272,2.3143-4.3128,5.201-4.3128,5.201    s-1.1445-1.4475-0.7385-3.3551c0,0,2.3727-3.5706,5.7635-4.141C23.43555,8.37503,26.58025,10.01283,26.58025,10.01283z" style="fill:#F43735;"/><path d="M29.12295,10.52373c2.3112,1.3897,3.9716,3.9589,3.9716,3.9589    c0.128,1.3128-0.0251,2.6236-0.6451,4.0178c0,0-1.6521-5.432-5.2699-8.0877" style="fill:#F43735;"/><g><path d="M26.58025,10.01283c0,0-2.9144-0.3296-2.8099-3.4028     C23.77035,6.61003,27.59805,7.07823,26.58025,10.01283z" style="fill:#F75E5E;"/><path d="M26.58445,10.03263c0,0,1.491-2.4304,5.6454-1.9877     C32.22985,8.04493,30.18135,12.67193,26.58445,10.03263z" style="fill:#F75E5E;"/></g><path d="M27.52355,26.32923c0.0011-0.001,0.0019-0.0021,0.003-0.0031l-0.1521-0.5997l-0.0115,0.0002    c-2.4017,2.1944-5.2853,1.2997-6.903,0.0999c-0.0051,0.0154-0.0686,0.2995-0.1429,0.635    C21.93715,27.73993,25.02035,28.78413,27.52355,26.32923z" style="fill:#DDBEA8;"/><path d="M17.14775,28.50903c0,0-1.5288,7.7364-0.1423,12.8948c0,0-6.6025-0.8292-10.4621-2.7594    c0,0,0.8711-3.7963,2.0731-5.3131c1.202-1.5169,3.1699-3.5402,5.9843-4.2334    C17.01705,28.50273,17.14775,28.50903,17.14775,28.50903z" style="fill:#1D97FF;"/><path d="M30.87955,28.43573c0,0,1.5015,7.8097,0.115,12.9681c0,0,6.6025-0.8292,10.4621-2.7594    c0,0-0.8711-3.7963-2.0731-5.3131c-1.2021-1.5169-3.181-3.4967-5.9843-4.2334    C30.87955,28.43573,30.87955,28.43573,30.87955,28.43573z" style="fill:#1D97FF;"/></g></g></svg>